<svg xmlns="http://www.w3.org/2000/svg" width="24.14" height="27.588" viewBox="0 0 24.14 27.588">
  <path id="discord-4" d="M21.312,0H2.828A2.835,2.835,0,0,0,0,2.842v18.65a2.835,2.835,0,0,0,2.828,2.842H18.47l-.731-2.552L19.5,23.422l1.669,1.545,2.966,2.621V2.842A2.835,2.835,0,0,0,21.312,0ZM15.987,18.015s-.5-.593-.91-1.117a4.353,4.353,0,0,0,2.5-1.641,7.884,7.884,0,0,1-1.586.814,9.078,9.078,0,0,1-2,.593,9.663,9.663,0,0,1-3.573-.014,11.588,11.588,0,0,1-2.028-.593,8.094,8.094,0,0,1-1.007-.469c-.041-.028-.083-.041-.124-.069a.191.191,0,0,1-.055-.041c-.248-.138-.386-.235-.386-.235A4.29,4.29,0,0,0,9.228,16.87c-.414.524-.924,1.145-.924,1.145a5,5,0,0,1-4.207-2.1A18.473,18.473,0,0,1,6.083,7.876,6.821,6.821,0,0,1,9.959,6.428l.138.166A9.3,9.3,0,0,0,6.469,8.4s.3-.165.814-.4a10.358,10.358,0,0,1,3.131-.869,1.352,1.352,0,0,1,.235-.028,11.672,11.672,0,0,1,2.786-.028A11.244,11.244,0,0,1,17.587,8.4a9.18,9.18,0,0,0-3.435-1.752l.193-.221a6.82,6.82,0,0,1,3.876,1.448,18.471,18.471,0,0,1,1.986,8.042,5.043,5.043,0,0,1-4.221,2.1ZM9.573,11.573a1.537,1.537,0,0,0,0,3.062A1.47,1.47,0,0,0,10.98,13.1a1.461,1.461,0,0,0-1.407-1.531m5.035,0A1.537,1.537,0,1,0,16.015,13.1a1.47,1.47,0,0,0-1.407-1.531" fill="#fffbf6"/>
</svg>
