<svg xmlns="http://www.w3.org/2000/svg" width="30.901" height="30.567" viewBox="0 0 30.901 30.567">
  <g id="teamspeak-svgrepo-com" transform="translate(-56 -53.827)">
    <path id="Pfad_3" data-name="Pfad 3" d="M83.115,75.625a3.5,3.5,0,0,1,.7,2.009,5.265,5.265,0,0,1-.155,1.622,5.549,5.549,0,0,1-3.322,3.94l-1.777.618-1.082.232c-4.944.927-11.433-.232-6.489-.773l1.313-.155q1.628-.363,3.245-.773h.077l.927-.309A12.839,12.839,0,0,0,80.18,79.8a9.943,9.943,0,0,0,2.009-2.858l.464-1.159C82.652,75.625,82.961,75.548,83.115,75.625ZM78.48,71.3c1.313-.232,2.163.386,2.24,1.468a3.324,3.324,0,0,1-1,2.7,2.783,2.783,0,0,1-2.472.927,19.236,19.236,0,0,1-3.09-.386c-1.468-.386-2.009-1.468-1.082-2.318A6.345,6.345,0,0,1,75,72.458l1.777-.7A6.965,6.965,0,0,1,78.48,71.3ZM62.18,70.14a1.732,1.732,0,0,1,2.627-1.391q1.646,1.045,3.245,2.163A10.893,10.893,0,0,1,70.6,73.926l.077.773a2.049,2.049,0,0,1-1.391,1.468l-1,.077H66.815l-1.236-.155a3.189,3.189,0,0,1-2.627-1.468A5.948,5.948,0,0,1,62.18,70.14Zm19.776-11.82.232.155c.309.309.618.7.232,1.236l-.077.077v.155l.155.155a13.715,13.715,0,0,1,2.472,5.639l.155.309.155.077A2.679,2.679,0,0,1,86.9,68.673V70.14l-.077,1.622A2.782,2.782,0,0,1,83.579,74c-.464-.077-.541-.464-.541-.85q-.007-2.549,0-5.1a11.588,11.588,0,0,0-23.175-.077v5.33c0,.464-.309.7-.773.7A2.764,2.764,0,0,1,56,71.067V68.982l.077-.773a2.752,2.752,0,0,1,1.468-2.086h.077l.077-.077a.425.425,0,0,0,.232-.386,13.872,13.872,0,0,1,2.318-5.485l.155-.232v-.386c-.232-.309-.077-.541.077-.85h.077a13.415,13.415,0,0,1,6.18-4.094A14.35,14.35,0,0,1,81.957,58.321Z" fill="#fffbf6"/>
  </g>
</svg>
